<?xml version="1.0" encoding="UTF-8"?>
<svg id="uuid-9b00a686-c152-4f2b-9514-330abfd1941a" data-name="REGIONS" xmlns="http://www.w3.org/2000/svg" viewBox="0 0 2000 2000">
  <defs>
    <style>
      .uuid-3d79ac98-61aa-41f6-b337-299836f311de {
        fill: #e6e6e6;
      }

      .uuid-3d79ac98-61aa-41f6-b337-299836f311de, .uuid-550aa943-d1dc-4e2d-a61b-c1164aeca6d7 {
        stroke-width: 0px;
      }

      .uuid-550aa943-d1dc-4e2d-a61b-c1164aeca6d7 {
        fill: #fbb040;
      }
    </style>
  </defs>
  <path class="uuid-3d79ac98-61aa-41f6-b337-299836f311de" d="m829.7,917.3c.93-1.6.8-2.73-.4-4.18-3.42-3.92-3.52-9.57-.25-15.08,2.4-4.27,7.57-4.82,11.07-5.15,7.79-3.21,13.37-11.37,14.92-21.86.16-1.63-.18-3.5-.53-5.47-.65-3.64-1.39-7.77,1.45-10.94,2.23-1.9,4.76-3.08,7.21-4.23l.47-.22c1.01-.84,2.31-1.35,3.62-1.37l.2-.52c.74-1.91,1.51-3.88,2.45-5.77,2.3-4.73,2.34-9.81,2.39-15.19.02-2.18.04-4.43.22-6.63-.13-2.96-1.65-5.43-3.26-8.05l-.39-.63c-2.36-3.8-3.16-8.7-2.09-12.78,3.19-14.5,8.49-16.78,18.11-20.91,1.88-.81,3.93-1.69,6.18-2.76,2.35-1.28,3.11-4.28,2.8-6.51-.16-3.67-1.37-6.06-3.6-7.2l-.16-.1c-5.5-3.28-9.08-8.08-9.82-13.17-.62-4.29.82-8.47,4.18-12.1.61-.91,1.07-1.9,1.32-2.91.09-.77.17-1.66.25-2.56.36-4.03.73-8.21,3.79-11.49,1.76-1.71,3.67-3.66,4.52-5.63,2.99-9.93,9.45-17.64,18.17-21.61,1.78-1.07,2.77-3.06,3.27-4.55.24-.7.3-1.45.13-1.74-3.26-.3-6.24.76-9.39,1.89-2.45.88-4.99,1.79-7.66,2.05-8.23-.12-12.21-1.01-14.13-3.21-.75.18-1.5.38-2.25.58-2.42.64-4.97,1.19-7.57,1.26-10.32.41-21.35-4.34-30.19-12.97-1.35-1.6-2.37-3.26-3.35-4.86-1.64-2.66-3.18-5.17-5.77-6.85-.8-.46-1.68-.77-2.61-1.1-1.15-.4-2.33-.82-3.46-1.6-4.4-3.81-5.55-10.74-4.79-15.95.29-2.88,1.57-5.44,2.81-7.92.69-1.39,1.35-2.69,1.83-4.05.17-2.81-.21-4.94-1.15-6.5-.82-.91-2.74-.78-4.76-.68-2.06.12-4.19.25-5.92-.76-1.2-.43-2.08-1.38-2.86-2.22-.67-.72-1.25-1.35-2.03-1.66-1.19-.35-2.47-.5-3.83-.65-1.58-.18-3.22-.36-4.84-.95-2.36-.74-3.79-2.6-5.17-4.4-1.48-1.93-2.76-3.59-5.06-3.84-2.17-.19-4.01,0-5.6.59-.45.27-1.06.71-1.68,1.15-1.38.99-2.82,2.02-4.44,2.32-.54.12-1.16.18-1.78.23-.98.08-1.9.15-2.57.6-1.77,1.68-3.25,3.94-4.67,6.13-2.34,3.58-4.75,7.28-9.12,9.25-4.06,2.98-8.89,2.87-13.56,2.76-2.2-.04-4.29-.09-6.32.18-2.19.25-3.99,1.54-5.9,2.91-2.69,1.94-5.75,4.14-9.88,2.64-3.08-1.06-5.66-3.11-8.15-5.09-1.97-1.57-3.83-3.05-5.91-4.06-4.56-2.5-9.8-2.46-14.08.09-5.53,3.96-13.09,4.13-18.76.35-3.83-3.08-6.5-7.08-7.37-11.06l-.31-1.05c-.6-2.04-1.22-4.16-2.32-5.63-1.87-2.19-4.13-2.89-6.73-3.7-.66-.2-1.34-.41-2.03-.65-.89-.43-1.5-.96-2.03-1.42-.54-.47-1.01-.88-1.57-1.08-2.78-.75-5.42-.85-8-.26-.96.28-1.87.97-2.84,1.7-.6.45-1.2.9-1.81,1.25-2.26,1.25-5.35.69-7.19-1.28-1.17-1.3-1.68-2.81-2.18-4.27-.55-1.63-1.03-3.03-2.3-3.88-2.36-1.54-5.08-2.33-7.95-3.18-3.54-1.03-7.2-2.11-10.13-4.69-1.23-1.05-2.28-2.28-3.3-3.48-1.8-2.1-3.5-4.09-5.99-4.9-3-.95-6.05-.12-9.27.74-1.27.34-2.59.7-3.88.93-3.06.51-5.92,1.3-9.03,2.5-3.01,1-5.13,2.02-6.51,4.04-.59.83-.77,1.93-.52,3.1.29,1.31,1.09,2.47,2.09,3.04,2.35,1.46,4.85,2.7,7.27,3.91,3.9,1.94,7.93,3.95,11.38,6.83.74.62,1.5,1.25,2.29,1.89,7.88,6.44,17.68,14.46,13.9,25.89-.92,1.9-2.46,2.97-3.95,4-.77.54-1.51,1.05-2.11,1.63-.01.01-.03.02-.04.04,4.54,2.05,9.09,5.35,13.86,10.07,1.37.68,2.77,1.35,4.19,2.01,7.71,3.63,15.68,7.38,19.84,15.44l1.75,3.18c6.31,11.49,12.85,23.37,12.94,36.66.32,3.09-.1,6.38-.51,9.57-.74,5.85-1.44,11.38,2.16,16.09,2.28,3.68,4.59,7.28,6.91,10.91,12.97,20.24,26.39,41.18,27.25,65.91,0,3.63-1.26,7.06-2.47,10.37-1.86,5.06-3.61,9.84-.88,14.84.49.72,2.06,1.52,3.04,1.35.82-.19,1.66-.41,2.51-.63,3.08-.79,6.23-1.6,9.43-1.6,1.38,0,2.78.15,4.18.52,5.92,1.81,11.29,7.13,14.41,14.25.81,2.3,1.25,4.64,1.67,6.91.84,4.46,1.62,8.67,4.8,11.92,3.92,3.39,8.28,6.58,12.5,9.67,7.39,5.41,15.04,11,21.04,18.27,4.17,4.39,6.07,10.67,5.77,19.16-.67,6.96-.5,14.38,5.77,17.03,4.59,1.56,9.52.27,14.29-.96,1.83-.47,3.73-.97,5.58-1.29h.04c4.53-.6,9.33-.34,14.32.77.04-.13.07-.25.09-.37,1.52-4.6,5.2-6.63,8.75-8.59,3.2-1.76,6.22-3.43,7.56-6.78Z"/>
  <path class="uuid-3d79ac98-61aa-41f6-b337-299836f311de" d="m665.41,207.44l.31.15c4.72,3.35,10.08,5.82,16.39,7.56,1.23.29,2.78-.69,3.72-1.61,5.01-4.83,13.02-8.24,19.63-5.01,1.28.66,2.33,1.6,3.34,2.52.97.87,1.89,1.7,2.92,2.21,1.54.12,2.88-.78,4.29-1.66,1.12-.7,2.29-1.43,3.66-1.79.72-.29,1.62-.52,2.48-.73,1.14-.29,2.23-.56,3.08-1.04.68-.92,1.15-2.04,1.65-3.22.84-1.98,1.7-4.02,3.64-5.42,1.99-1.19,4.61-1.96,7.23-1.96,2.14,0,4.27.51,6.07,1.7,1.17,1.06,2.53,1.3,4.2,1.51,5.84.47,9.93,2.39,12.11,5.71,3.59,5.49,1.47,13.77-1.08,21.16-2.28,7.11-6.8,13.27-10.01,17.29-.85,1.1-1.03,2.99-.38,4.2.41.76,1.05,1.09,1.96,1.04l.55-.02c3.28-.07,6.98-.14,9.41-1.79.5-.86.89-1.78,1.3-2.75.75-1.78,1.52-3.62,3.07-5.11,2.37-2.86,5.76-2.01,8.48-1.34,1.32.32,2.56.7,3.66.58,4.15.11,4.5-2.51,4.94-7.22.19-2.06.39-4.19,1.17-5.91,2.81-5.5,6.9-10.55,10.84-15.43,1-1.23,1.98-2.45,2.93-3.65,8.92-11.22,18.05-9.71,26.1-8.37,9.03,1.5,16.84,2.79,24.23-11.9.86-1.46,1.45-3.07,2.08-4.78,1.4-3.8,2.86-7.73,7.01-9.47,3.96-1.42,7.97-.86,11.84-.3,4.04.57,7.85,1.13,11.49-.43,4.87-1.76,9.06-5.12,11.57-9.25.56-1.24.89-2.65,1.24-4.15.06-.27.13-.53.19-.8-5.57-1.23-10.62-4.1-15.52-6.89-1.13-.65-2.27-1.29-3.4-1.91-17.9-10.09-36.63-24.75-24.34-49.11-5.66.86-10.64,2.08-16.68,4.07-5.59,5.44-13.28,11.85-23.37,13.77-11.22,2.74-24.97,3.65-40.8,2.71-9.55-.79-19.6-1.19-28.5,3.25-1.13.78-2.62,1.54-4.06,2.26-3.55,1.79-7.22,3.64-7.94,7.21-1.35,14.76-10.67,24.08-26.22,26.15-9.83,2.71-20.63-2.42-24.1-11.51-6.36-3.82-10.45-5.11-13.59-4.34-3.93.98-6.86,5.33-11.08,12.39,6.8,9.41,9.81,18.01,8.94,25.57l-.23.67c-1.59,4.04-3.39,8.59-6.09,12.33,1.5,7.57,4.38,11.41,9.66,12.91Z"/>
  <path class="uuid-3d79ac98-61aa-41f6-b337-299836f311de" d="m338.52,641.9c3.08.88,6.18,1.58,9.26,1.17,1.75-.3,2.44-1.67,3.43-3.88.67-1.52,1.37-3.09,2.71-4.19,1.84-1.87,4.81-2.94,8.75-3.11.98-.16,1.74-1.19,2.54-2.27.26-.36.53-.71.79-1.03,2.45-3.8,2.59-8.59,2.71-13.22.03-1.25.07-2.48.15-3.69,1.09-10.96,7.49-19.84,12.22-25.56,1.47-2.01,1.91-4.55,2.21-6.78,1.74-6.87,9.87-8.95,16.22-8.78.75-.03,1.56.04,2.38.11,1.06.08,2.07.16,3.04.04.74-.35,1.47-.72,2.19-1.08,2.19-1.11,4.46-2.27,7.09-2.69,2.13-.55,4.4-.43,6.59-.29,2.78.15,5.39.31,7.71-.94-.13.04-.09-.09-.06-.19.14-3.07,1.77-5.96,4.58-8.04,3.45-2.56,8.22-3.57,12.16-2.56,3.32.93,5.11,3.45,6.85,5.89,1.18,1.66,2.29,3.22,3.82,4.21.78.56,1.77.32,2.28.13,1.08-.51,2-1.47,2.98-2.48,1.37-1.42,2.92-3.04,5.34-3.49,1.03-.4,2.23-.55,3.39-.69,1.69-.21,3.14-.39,4.29-1.42,1.47-1.35,1.37-3.49,1.27-5.74-.04-.92-.08-1.83-.02-2.69.5-2.13,1.86-3.84,3.85-4.98,2.33-1.34,5.24-1.73,7.6-1.02l.24.11c2.65,1.64,4.64,3.14,6.26,4.72,1.04,1.19,1.67,2.48,2.28,3.73.45.92.87,1.79,1.42,2.58,1.22,2.01,4.11,2.26,6.22,1.39,1.31-.67,2.32-1.76,3.39-2.9.52-.56,1.05-1.12,1.61-1.64.47-.42.99-.83,1.58-1.22-1.97-4.94-2.77-11.74.93-16.12-2.4-6.87-5.35-13.48-11.7-14.19-3.07-.06-6.67-.3-9.2-2.43-2.07-2.22-1.96-5.21-1.86-7.84.11-2.92.19-5.44-2.08-6.73-.91-.34-2.05-.52-3.27-.71-2.19-.34-4.47-.7-6.32-2.44-2.09-2.23-1.63-5.03-1.21-7.5.23-1.38.45-2.68.27-3.82-.18-3.84-1.1-6.6-2.84-8.55-4.63-4.76-12.5-3.89-18.01-2.84-1.24.21-2.49.54-3.8.89-4.08,1.07-8.29,2.19-12.31-.06-5.51-4.19-9.89-10.63-12.45-18.2-1-3.46-1-7.11-1-10.63,0-2.37,0-4.6-.28-6.74-.28-1.97-1.51-3.53-2.82-5.18-1.25-1.59-2.55-3.23-3.04-5.33-.29-4.04,2.14-7.67,6.64-10.13,4.76-2.59,11.75-3.59,15.92-.47,1.1,1.11,1.48,2.4,1.82,3.53.22.75.44,1.47.79,2.03.57-.05,1.32-.25,2.06-.56,2.03-.97,3.15-3.25,4.2-5.69.17-.49.27-1.09.38-1.69.27-1.49.59-3.18,2.1-4.39,2.91-1.35,3.79-4.42,2.83-9.26-1.61-8.66-6.91-15.63-12.04-22.37l-1.43-1.89c-3.34-3.71-4.11-8.39-4.85-12.91-.65-3.96-1.27-7.71-3.55-10.79-.8-.72-1.87-1.51-3.01-2.36-3.67-2.71-7.82-5.79-6.63-11.57.23-8.73,1.55-21.61,10.03-30.58,3.83-3.68,6-6.74,7.08-9.95,1.35-3.84,1.94-6.95,1.89-9.97-13.73-5.95-25.4-14.82-33.76-25.66-4.11-6.65-4.52-14.08-4.14-19.16-.1-1.9.25-4.25.62-6.75.89-6.01,1.81-12.21-3.47-14.22-4.13,2.15-6.49,5.91-8.98,9.88-1.55,2.46-3.15,5.01-5.21,7.18-2.43,2.87-5.7,5.01-8.87,7.08-4.29,2.81-8.35,5.46-10.49,9.87l.19,2.57c1.3,17.26,1.5,19.95-13.69,33.35-4.24,6.74-10.77,11.94-19.42,15.48.19.14.37.28.56.42,1.91,1.45,3.89,2.95,4.94,5.36,2.21,4.97,1.83,10.25,1.47,15.35-.19,2.63-.38,5.36-.2,7.94.83,2.25,1.91,4.48,2.95,6.64,2.68,5.56,5.46,11.32,4.57,18.12-1.02,8.89-8.94,18.82-19.11,19.39-10.61,1.2-21.63,2.44-30.82-4.35-3.15-1.17-6.9.88-9.54,2.84-2.63,3.53-5.87,7.36-10.83,8.5-2.34.81-4.89.98-7.36,1.14-2.96.2-5.75.39-8.27,1.63-1.18.49-2.63,2.05-4.04,3.57-.9.97-1.82,1.96-2.76,2.81,1.94,3.26,3.16,7.26,3.71,12.2l.1,1.27c.38,4.66.77,9.49-.55,14.12-1.67,5.17-4.31,8.42-7.1,11.86-1.13,1.4-2.3,2.84-3.42,4.44-4.35,5.05-10.2,6.61-15.86,8.11-1.93.52-3.93,1.05-5.82,1.71-1.81.9-3.35,2.38-4.97,3.96-1.05,1.01-2.14,2.07-3.35,2.97-4.15,3.34-9.1,3.47-13.89,3.6-1.88.05-3.82.1-5.65.36-1.57,6.17-.35,14.74,5.09,19.14,5.77,2.3,10.1,6.71,14.29,10.98.99,1.01,1.97,2.01,2.97,2.97,1.57,1.46,3.35,2.38,5.23,3.35,1.19.62,2.43,1.26,3.61,2.05,4.38,2.9,7.32,8.08,8.04,14.22,1.64,12.14,2.18,27.47-8.31,38.19-9.74,12.53-2.11,32.64.46,38.5,1.89,3.54,3.68,6.53,6.15,9.37,1.18.78,2.43,1.39,3.76,2.04,1.55.76,3.15,1.54,4.62,2.61,6.12,5.67,13.98,9.5,24.11,11.8,4.94,1.39,10.21,1.42,15.31,1.45,7.76.04,15.78.09,22.76,4.83,6.37,2.87,11.34,7.8,14.4,14.26.93-.03,1.87-.04,2.84-.04,3.89,0,8.1.21,12.56.64Z"/>
  <path class="uuid-3d79ac98-61aa-41f6-b337-299836f311de" d="m440.66,313.89c-2.52,2.75-5.13,5.6-6.57,8.78-2.54,5.15-3.21,11.25-3.74,16.15.05.75-.04,1.72-.13,2.65-.17,1.76-.34,3.43.4,4.64.92.79,1.89,1.54,2.86,2.28,3.44,2.64,7,5.38,8.31,10.1.59,1.92.85,4,1.1,6.01.3,2.46.59,4.78,1.44,6.84,1.87,3.72,4.46,7.41,6.96,10.99,5.89,8.42,11.97,17.13,10.58,28.4-.34,2.96-2.2,5.74-5,7.5l-.06.27c-.62,6.56-6.47,13.3-11.99,13.66-2.19.2-6.04-.63-7.82-7.34-4.44-1.08-9.32,1.27-11.95,4.27-.4.83.12,1.59,1.44,3.08.62.7,1.26,1.42,1.66,2.26,3.04,3.97,3,8.94,2.96,13.74-.02,2.79-.04,5.42.52,7.9,1.45,5.51,5.53,12.74,10.54,15.96,2.94.37,5.82-.39,8.86-1.21,2.47-.66,5.01-1.34,7.66-1.39,7.64-.93,13.93.94,18.07,5.43,4.3,4.68,5.81,11.71,4.29,19.87.99.46,2.13.61,3.32.78,1.24.16,2.52.33,3.74.86,5.72,2.11,5.89,7.63,6.04,12.5.04,1.2.07,2.34.19,3.4,1.32.57,2.83.65,4.41.73,2.31.12,4.7.24,6.77,1.89,4.66,2.87,8.31,8.02,10.5,14.89,1.04-.52,2.03-1.05,2.88-1.78l-.12-1.4c-.4-4.44-.81-9.03,1.22-13.49.29-1.01,1.05-2,1.72-2.87.37-.49.74-.96,1-1.43,1.32-2.53,1.12-5.58.83-8.23-.39-1.11-1.52-2.09-2.72-3.13-1.41-1.23-3-2.61-3.57-4.76-.69-4.12,1.22-7.67,3.06-11.11.83-1.54,1.61-3,2.15-4.47.6-1.21.85-2.4,1.11-3.66.23-1.09.46-2.22.92-3.31l.16-.26c6.64-7.9,16.88-16.08,25.76-15.57,4.37.28,8,2.63,10.79,6.98,6.15,7.47,15.79,5.62,19.64,4.47,3.72-.7,7.82-1.47,10.9-3.55.68-.52,1.28-1.26,1.92-2.03,1.25-1.52,2.67-3.26,5.22-3.54,4.25-.68,9.95,1.04,12.07,5.58.24.51.48,1.04.71,1.56.79,1.78,1.54,3.45,2.77,4.78,2.06,1.68,4.81,1.77,7.72,1.85,2.63.08,5.36.17,7.85,1.51,2.32.89,4.12,2.62,5.85,4.29,1.34,1.29,2.61,2.51,4.12,3.35,1.57.31,3.39.23,5.14.16,1.47-.06,2.98-.12,4.35.04,5.23.28,10.28,2.23,14.16,5.48l.63.51c1.43,1.18,2.78,2.29,4.44,2.43,6.11-.03,11.06-.49,15.51-1.44,2.13-.64,3.15-2.52,4.32-4.68,1.01-1.86,2.05-3.78,3.98-5.06,3.27-2.5,8-3.66,11.8-4.59l.59-.15c4.43-.49,8.06,1.6,11.02,3.72,5.76,3.94,13.95,5.13,22.49,3.24,4.61-2.53,9.62-2.46,14.47-2.38,3.3.05,6.7.1,9.87-.7,1.61-.4,3.1-1.11,4.68-1.85,1.45-.68,2.95-1.39,4.54-1.83-.17-.6-.24-1.23-.05-1.87-.71-2.17-1.58-4.35-3.29-5.71-1.34-.88-3-1.33-4.76-1.81-2.4-.65-4.88-1.32-6.78-3.3l-.31-.51c-2.19-4.17-3.9-6.83-7.53-5.76-.42.23-1,.59-1.57.96-1.65,1.03-3.52,2.23-5.86,2.03-.03,0-.07,0-.1,0-2.57,0-5.31-1.17-8.08-3.47l-.24-.29c-2.09-3.73-2.46-8.29-2.54-12.25-.94-4.27-5.21-6.36-9.34-8.37-.89-.43-1.76-.86-2.58-1.3-2.1-1.6-4.97-3.94-7.25-6.73-1.74-2.78-1.89-6.21-2.01-8.97l-.03-.72c0-5.93-2.4-13.25-9.14-14.53h-.14c-11.53,0-23.01-7.18-26.54-16.74-2.82-7.64-.32-15.3,7.05-21.57,4.83-5.69,6.85-13.2,8.8-20.45,1.02-3.79,2.07-7.7,3.53-11.39-.63-.02-1.21,0-1.58.14-2.33.46-4.3,1.42-6.39,2.44-2.81,1.37-5.73,2.72-9.08,2.71v-.02.03c-3.81-.2-6.83-1.78-9-4.7-3.68-4.97-3.92-12.89-2.53-18.53.15-3.45-.62-7.04-1.37-10.53-.78-3.65-1.59-7.43-1.34-11.32.59-6.79,4.56-11.8,8.23-15.97,2.6-3.71,2.02-8.78,1.44-11.47-1.08-2.83-1.21-5.93-1.34-8.92-.11-2.66-.22-5.18-.97-7.59-.3-.88-.9-1.66-1.54-2.48-.77-1-1.57-2.03-1.95-3.39-1.6-8.21,4.34-15.42,10.93-18.97.4-.2.65-.47.85-.89-5.17-1.39-10.04-4.25-14.55-7.18-5.93-1.73-10.19-6.4-12.39-13.56-8.54,3.36-17.31-1.74-25.05-6.26-2.4-1.4-4.67-2.72-6.82-3.74-3.4,1.85-6.52,4.84-9.29,8.88,6.06,3.92,12.22,8.05,14.92,15.36,2.77,6.33,5.72,14.83,3.71,23.95-.17,1.28.11,2.62.41,4.05.27,1.33.56,2.7.49,4.18-.15,4.16-2.11,7.85-5.67,10.69-4.53,3.6-11.09,5.25-16.72,4.15-6.17-1.12-12.31-5.57-16.41-11.89-1.4-1.4-2.14-4.13-2.86-6.77-.76-2.83-1.56-5.75-3.13-6.44-.75-.32-1.77-.15-3.05.53-2.07,1.32-4.08,3.2-6.02,5.01-4.3,4.02-8.74,8.17-15.38,7.86-5.23-.15-9.79-2.64-14.21-5.05-.83-.45-1.66-.9-2.49-1.34-10.24-3.21-15.97-11.56-15.71-22.93-4.54.54-9.1,5.14-12.49,8.56-.45.45-.88.89-1.29,1.3-1.54,3.82-.45,7.88.7,12.17.96,3.56,1.95,7.24,1.43,10.96-.13,4.92-1.13,9.66-2.99,13.99-1.94,5.6-6.1,9.5-10.13,13.27-1.69,1.58-3.44,3.22-4.98,4.95-5.22,6.34-2.86,13.87-.57,21.17.72,2.28,1.46,4.64,1.94,6.9,1.29,6.13-.9,12.44-5.99,17.32-5.97,5.72-14.8,8.33-21.96,6.52l-.12-.04c-8.85-3.44-15.11-11.94-15.63-21.18-2.27-6.79-2.94-12.94-2.05-18.77-1.47-.6-2.88-1.37-4.25-2.11l-.03-.02c-.49,6.36-2.74,12.36-6.43,17.04-.64.73-1.28,1.42-1.91,2.12Z"/>
  <path class="uuid-3d79ac98-61aa-41f6-b337-299836f311de" d="m271.18,386.98c3.95-.38,7.69-.74,10.72-2.85,6.37-8.05,12.71-11.25,19.38-9.8,1.53.65,2.84,1.34,4.15,2.02,3.96,2.07,7.69,4.04,12.13,3.21,1.44-.09,2.79-.14,4.14-.18,4.55-.15,9.25-.31,13.38-1.71,7.45-4.19,10.86-12.93,8.12-21.17-.76-2.17-1.85-4.16-2.91-6.09-1.17-2.15-2.39-4.37-3.19-6.88-1.18-3.43-.78-6.97-.39-10.38.24-2.11.47-4.11.34-6.09l-.12-1.25c-.27-3.04-.55-6.19-2.94-7.98-1.98-1.28-3.48-2.56-4.65-3.95-5.37,1.49-11.25,2.34-17.04,2.47h-.05c-2.86,0-5.45-.92-7.96-1.82-2.58-.92-4.99-1.84-7.65-1.68-13.63,2.4-26.39,8.64-38.72,14.69-1.84.9-3.68,1.8-5.52,2.69-2.75.71-5.42,1.22-8,1.72-7.11,1.36-14.46,2.77-20.34,7.09-1.6,2.19-1.03,5.91-.58,8.52.67.64,1.36,1.28,2.06,1.92,2.73,2.54,5.56,5.15,7.46,8.16,2.94,4.34,4.19,9.36,5.39,14.23,1.09,4.41,2.12,8.56,4.32,12.33h0c2.22,3.82,5.29,6.77,8.55,9.88.74.71,1.48,1.42,2.21,2.13.77-.64,1.46-1.4,2.19-2.19.49-.54.98-1.07,1.49-1.57,3.65-4.47,8.92-4.97,14.02-5.46Z"/>
  <path class="uuid-3d79ac98-61aa-41f6-b337-299836f311de" d="m1423.7,1300.41c-.15-2.66-.33-5.68.46-9.48.75-3.41,3.18-5.29,5.52-7.12,1.77-1.38,3.45-2.68,4.33-4.57.85-4.16-.37-9.86-3.18-14.3-1.55-1.62-3.85-2.24-6.29-2.9-.5-.14-1.01-.27-1.51-.41-33.45-15.43-30.32-32-28.04-44.09,1.37-7.23,2.45-12.95-3.86-16.82-2.28-.82-4.78-.47-7.43-.1-1.04.15-2.09.29-3.14.36-2.38.26-4.78-1.15-6.55-3.7-5.46-6.79-7.88-13.47-7.14-19.82-.04-4.99,3.3-8.77,6.24-12.1l.51-.58c7.33-8.36,9.98-18.7,7.16-27.75-6.14-2.64-12.87-3.76-19.39-4.85-2.74-.46-5.46-.91-8.15-1.47-6.31-.66-11.2-2.88-14.43-6.59-3.3-3.95-2.63-8.74-1.99-13.36.53-3.78,1.03-7.35-.45-10.5h0s-.33-.12-.58-.22c-1.82-.62-3.57-.2-5.43.25-2.28.54-4.87,1.17-7.48-.25-3.95-1.13-4.28-4.66-4.57-7.77-.19-2.02-.37-3.92-1.46-5.22-1.14-1.46-2.57-2.29-4.47-3.3-1.58-.52-2.77-1.5-3.41-2.87-1.32-2.84.13-6.52,1.3-9.48l.21-.55c.04-.79-.05-2.33-1.14-2.72-2.58-.66-4.94-.95-7.02-1.2-2.29-.28-4.3-.52-5.93-1.24-3.45,3.78-6.98,6.4-10.79,8-2.95,1.03-5.94.93-8.84.83-.96-.03-1.92-.06-2.87-.05-.67.01-1.69.45-2.19.84-2.37,1.6-4.2,3.79-5.98,5.91-2.5,2.98-5.07,6.05-9.06,7.63-6.57,2.43-13.88,1.53-20.16.32-5.45-.81-8.62-5.17-11.41-9.01-.45-.62-.9-1.23-1.35-1.83-2.06-2.37-4.98-3.01-8.09-3.68l-.67-.15c-2.57-.59-5.22-.94-7.78-1.28-.95-.13-1.89-.25-2.84-.39l-2.34-.33c-3.97-.58-7.73-1.13-11.63-.56-.61.18-1.43.89-1.72,1.58-2.75,7.73-7.4,12.07-13.42,12.51-3.03.99-6.33.48-9.53-.02-2.97-.46-5.77-.9-8.4-.12-4.62,4.72-4.34,10.83-4.04,17.29.18,4.02.37,8.18-.7,12.02-1.43,3.12-4.36,4.84-6.96,6.35-.88.51-1.73,1.01-2.5,1.55-.5.3-.95.65-1.41,1.09t0,0c5.33,3.9,9.29,9.16,13.11,14.26,1.89,2.52,3.68,4.9,5.63,7.14,5.7,5.38,10.31,12.22,14.45,21.46.91,1.62,1.23,3.43,1.54,5.2.41,2.3.76,4.29,2.39,5.67,2.93,2.47,6.75,2.81,10.8,3.16,1.45.13,2.89.25,4.28.48,1.63.29,3.23.61,4.83.92,3.45.68,7.02,1.39,10.59,1.75,13.06,2.59,25.73,11.9,24.87,24.73-.66,4.12-2.96,7.37-5.19,10.51-2.28,3.2-4.44,6.24-4.86,9.98,6.09-.3,11.01-2.75,16.74-5.89,14.62-5.63,37.38-9.45,53.81-1.9,8.35,3.84,14.14,10.14,17.21,18.75,3.3,5.94,2.21,13.64,1.15,21.08-1.54,10.78-2.86,20.1,8.09,24.09,11.54.38,22.41,5,31.44,13.37,1.66,1.37,3.25,2.95,4.78,4.47,3.45,3.43,6.71,6.67,11.23,8.16.7.16,1.49.39,2.28.62,2.86.82,5.8,1.68,8.44.65.85-.44,1.78-.99,2.7-1.54,2.46-1.46,5.01-2.97,8.06-3.42,1.73-.31,3.49-.46,5.29-.46,6.79,0,13.99,2.19,21.5,6.55,7.27-5.07,7.07-8.47,6.78-13.58Z"/>
  <path class="uuid-3d79ac98-61aa-41f6-b337-299836f311de" d="m1147.17,1103.05c-.26-5.98-.54-12.16,3.07-17.7,1.93-3.89,4.84-6,8.34-6,.15-.02.29,0,.43,0,.82,0,1.65.05,2.42.11.36-2.49.88-5.01,1.38-7.45,1.21-5.87,2.46-11.94,1.51-17.78-2.51-6-2.85-11.25-.97-15.43-2.82-2.35-5.23-4.15-8.14-5.47-1.59-.2-3.23-.11-4.97-.02-2.4.12-4.89.25-7.29-.41l-.77-.15c-3.41-.65-6.93-1.33-9.93-3.33-2.55-1.88-4.85-3.58-7.52-4.48-2.89-.47-6.15,1.02-9.3,2.45-5.06,2.3-10.8,4.9-15.68-1.48-.81-.75-1.86-1.34-2.71-1.46-1.45-.27-2.82-.2-4.25-.12-1.83.11-3.73.21-5.73-.43-4.64-1.67-7.96-4.9-8.92-8.65-.38-1.12-.74-2.43-1.12-3.79-1.45-5.22-3.1-11.14-7.47-13.23-2.28-1.15-4.82-1.09-7.5-1.04-2.26.05-4.62.1-6.91-.59-2.9-.79-5.85-2.01-8.7-3.19-2.08-.86-4.03-1.67-5.96-2.32-4.03-.61-7.55-3.24-10.59-7.99-3.81-3.95-5.15-8.63-3.77-13.38.2-3.72,3.11-6.01,5.68-8.03,1.26-.99,2.45-1.93,3.33-3.01,1.4-2.39,3.89-3.93,7.12-4.35,4.33-.55,9.43,1.13,12.42,4.1,3.96,3.57,9.05-.53,13.9-5.03l.31-.28c.62-1.79-.1-4.2-1.08-5.74-.98-1.49-2.75-2.18-4.46-2.85l-.47-.18c-5.9-1.12-10.4-4.45-12.5-9.33-.74-1.62-1.23-3.4-1.71-5.11-.69-2.51-1.34-4.88-2.74-6.79-1.01-1.83-2.38-3.14-3.82-4.51-1.3-1.24-2.65-2.52-3.66-4.15-.98-2.52-.93-5.03.07-7.08.83-1.71,2.22-2.95,4.03-3.6.99-1.39.92-3.49.86-5.54-.04-1.24-.07-2.4.11-3.47.23-4.5,1.33-10.58,5.21-13.34,2.17-1.54,4.9-1.85,8.12-.91,2.26.67,4.7.53,7.46-.41,2.08-.31,3.54-.98,4.21-1.87.39-.53.53-1.14.42-1.89-.13-1.85-1.33-2.97-2.72-4.25-.61-.57-1.22-1.14-1.74-1.76-1.26-1.19-1.88-2.68-1.78-4.3-1.24-.36-2.68-1.1-4.08-1.82-2.71-1.39-5.26-2.71-7.58-1.96-1.22.53-1.44,1.85-1.71,3.96-.2,1.64-.43,3.49-1.64,4.84-1.81,1.87-4.2,2.65-6.51,3.39-1.49.49-2.9.94-4.11,1.66-9.24,5.27-19.97,5.39-31.09,5.03-1.23-.15-2.31-.49-3.35-.83-1.35-.44-2.62-.87-3.91-.78-2.69.39-4.33,3.03-5.44,5.29-.47,1.18-1.11,2.43-1.73,3.63-.98,1.91-1.99,3.88-2.42,5.81.3.99.94,1.87,1.6,2.81.62.86,1.26,1.76,1.7,2.82,1.02,2.31,1.03,4.48.02,6.42-2.13,4.06-8.02,5.56-10.05,5.97-.04.02-.08.04-.12.06-1.3,2.68-4.21,3.25-6.56,3.71-.65.13-1.3.25-1.89.42-.32.6-.48,1.21-.63,1.81-.52,2.06-1.06,4.19-2.88,5.62-3.49,2.59-8.23,2.23-12.04,1.92l-.77-.06c-4.94-.25-8.91-1.49-11.79-3.67-1.23-1.17-1.89-2.5-2.52-3.78-.92-1.85-1.64-3.3-3.52-3.75-1.33-.33-2.73-.62-4.17-.92-8.32-1.73-17.76-3.7-20.16-13.24-.43-1.76-.61-3.51-.8-5.2-.33-3.09-.65-6.02-2.36-8.6-.55-.91-1.62-1.52-3.22-1.84-4.51-.78-8.39-.64-11.5.44-4.4,2.43-8.73,3.04-13.07,1.8-4.01.13-7.76-1.15-10.08-3.41-1.8-1.74-2.74-4.07-2.72-6.71-.12-1.81.08-3.61.27-5.34.26-2.36.51-4.58-.06-6.79-.68-2.43-1.95-4.51-3.3-6.71-.54-.88-1.08-1.77-1.59-2.68-.8.45-1.63.82-2.45,1.17-1.73.76-3.36,1.49-4.31,2.82-.25,1.37-.04,2.53.21,3.86l.18,1.03c1.54,6.84-.07,14.4-4.92,23.06-3.83,5.88-9.23,10.12-14.85,11.68-4.69.22-6.75,1.4-7.35,4.11l-.09.25c-1.4,2.71-.11,4.71,1.53,7.25.25.38.5.76.74,1.15,2.65,5.68-1.85,12.19-7.13,15.89-1.03.64-2.08,1.16-3.12,1.67-2.81,1.39-5.24,2.59-6.21,5.38,0,0,0,.02-.01.02,10.07,3.49,18.31,9.38,23.51,13.79,7.38,6.15,16.52,14.63,21.78,25.79.67,1.27,1.28,2.64,1.89,4.02,1.62,3.65,3.16,7.1,6.08,9.52,3.68,2.9,8.14,4.05,12.85,5.27,4.22,1.09,8.58,2.22,12.39,4.72,7.02,4.1,13.03,9.63,18.47,14.99,2.2,1.99,4.48,4.02,6.78,6.06,16.99,15.07,34.56,30.66,40.04,53.32,2.8,10.19,11.79,16.82,22.91,16.85,14.19,1.12,28.82,3.01,38.89,12.6,2.34,2.11,4.34,5.03,6.45,8.12,4.44,6.49,8.63,12.66,15.88,11.38,4.62-2.3,10.92-3.87,15.47-3.87h.26c6.8-.84,13.65.19,20.27,1.19,3.46.52,7.03,1.05,10.55,1.31,4.92.8,9.55-.29,14.46-1.44,4.66-1.09,9.46-2.23,14.43-1.58h.04c4.86.86,9.46,2.31,13.67,4.34,1.58-1.63,3.48-2.85,5.32-4.04,2.04-1.31,3.97-2.56,5.42-4.27.5-3.14.35-6.48.21-9.73Z"/>
  <path class="uuid-3d79ac98-61aa-41f6-b337-299836f311de" d="m1553.35,1209.36c-1.48-4.37-1.54-9.89-1.61-15.24-.09-7.83-.18-15.23-4.37-18.9-2.43-2.12-6.1-2.84-11.24-2.22-4.59-.15-8.22.49-11.29,1.96-1.09.53-2.16,1.15-3.22,1.77-2.33,1.36-4.74,2.76-7.57,3.27-11.65.89-19.51-10.07-25.27-18.1l-.58-.8c-2.86-3.08-6.06-5.62-9.44-8.3-.86-.68-1.73-1.37-2.59-2.07-2.66-1.85-5.7-1.18-8.93-.47-1.88.42-3.84.85-5.75.76-14.97-2.27-16.11-12.04-17.03-19.9-.53-4.55-1-8.49-3.69-10.61-2.02-1.58-5.24-2.08-9.86-1.52-1.22.39-2.7.68-4.13.98-1.42.29-2.76.56-4,.94-1.79.51-3.43,1.4-5.01,2.26-1.43.78-2.91,1.58-4.5,2.12-2.84.88-5.75.83-8.55.78-1.54-.02-3.13-.05-4.65.08-5.71.24-11.11,3.48-13.49,8.08-.22.75.05,1.68.36,2.77.16.56.32,1.11.41,1.68,2.37,7.82-.77,16.11-3.35,21.66-1.54,3.28-3.84,6.03-6.06,8.68-1.51,1.81-3.07,3.68-4.34,5.67-3.2,8.31,3.67,17.1,5.85,19.59.73.87,1.87.67,3.68.25.87-.21,1.9-.42,2.63-.41,4.84-.12,8.41.74,11.13,2.84,6.81,6.31,5.37,14.35,3.97,22.12-.97,5.42-1.98,11.03-.1,15.86,3.71,9.7,13.61,15.24,22.35,20.12l.78.43c5.85,1.31,12.73,3.77,14.56,11.03,2.69,8.04,4.03,17.13-6.56,23.16-.44.4-1.04,1.16-1.46,1.91-1.09,2.55-.9,5.48-.68,8.58.26,3.86.53,7.84-1.88,11.41-.96,1.31-3.14,3.86-5.47,5.97,2.7,1.91,5.43,4.07,8.12,6.44.63-.33,1.33-.6,1.98-.76,2.02-1.39,3.35-3.49,4.76-5.7,1.6-2.51,3.25-5.11,6.01-6.68,9-2.96,15.39-2.9,19.72.12,3.74,2.6,5.78,7.43,6.08,14.35,1.37,2.19,4.47,2.52,7.22,2.82.51.06,1,.11,1.47.17,4.28.6,8.17-.25,12.28-1.14,2.19-.48,4.46-.97,6.81-1.23.81-.33,1.55-.82,2.33-1.35,1.11-.74,2.26-1.51,3.71-1.86,1.4-.61,3.04-.68,4.62-.74,1.62-.06,3.15-.12,4.42-.84,1.46-.92,1.89-2.91,2.3-4.84.13-.6.25-1.19.41-1.73.7-2.38,1.06-5.03,1.44-7.85.98-7.21,2.1-15.39,9.77-18.67.63-.22,1.25-.41,1.91-.58-.38-2.78.41-5.48,2.27-7.69,3.07-3,6.81-5.03,10.42-7,4.76-2.59,9.25-5.03,12.29-9.35,2.67-3.37,3.64-7.45,4.67-11.78.67-2.83,1.37-5.75,2.57-8.45,1.17-2.76,2.24-5.63,3.28-8.41,1.17-3.14,2.38-6.38,3.75-9.51-1.31-1.27-2.66-2.42-3.97-3.53-3.99-3.39-8.11-6.91-9.74-12.42Z"/>
  <path class="uuid-3d79ac98-61aa-41f6-b337-299836f311de" d="m587.92,1309.25c1.63-3.01,3.37-5.76,5.06-8.42,3-4.72,5.83-9.18,7.73-14.67,2.72-10.98,4.2-27.04-4.09-41.26-4.13-8.37-9.19-16.38-14.09-24.12-6.23-9.84-12.67-20.02-17.22-30.98-.99-2.66-1.65-5.47-2.3-8.19-1.37-5.78-2.66-11.23-6.63-15.33-7.96-5.03-18.93-3.63-28.05-2.25.93,3.2.07,6.72-2.31,9.07-1.44,1.81-3.57,2.29-5.45,2.71-.97.21-1.88.42-2.69.79-2.84.94-5.26,2.42-7.82,3.98-.87.53-1.74,1.06-2.62,1.57-3.67,2.65-7.71,4.59-11.63,6.47-1.62.78-3.23,1.55-4.82,2.38-3.41,4.62-6.26,9.87-9.02,14.94-5.31,9.77-10.8,19.86-20.58,26.42-14.88,11.39-35.47,9.46-46.42,7.3-19.56-6.46-18.59-24.66-17.73-40.71.07-1.31.14-2.61.2-3.9-12.46,4.7-9.18,16.7-5.72,29.39,1.62,5.95,3.15,11.56,2.98,16.39.19,2.78.15,5.83.12,9.07-.13,11.5-.26,23.39,9.29,29.63,1.8.75,3.83,1.2,5.99,1.68,2.89.64,5.87,1.3,8.62,2.97,7.36,4.62,11.6,13.49,13,27.12l.12,1.27c1.35,14.37,2.75,29.22,1.47,43.85-.87,8.81-3.33,16.65-7.32,23.31l-.34.81c-.61,1.38-1.19,2.67-1.13,4.03.11,6.32,3.4,11.22,6.88,16.4,2.96,4.41,6.02,8.97,7,14.48,2.52,12.35-1.56,23.9-5.5,35.08-2.68,7.6-5.46,15.45-6.09,23.46.08,3.65.89,7.44,1.67,11.1.93,4.39,1.9,8.93,1.68,13.59-.47,3.69-1.04,7.29-1.6,10.89-1.72,10.92-3.49,22.19-2.16,33.45.99-.42,1.96-.84,2.92-1.26,5.37-2.33,10.51-4.56,15.07-4.56,1.68,0,3.27.3,4.77,1.01,3.7,1.76,6.4,5.84,8.27,12.48,2.61,13.72,3.88,17.22,18.59,16.73,16.18-1.23,24.7-20.64,29.32-31.33-1.49-7.22-3.22-16.11,2.73-23.39,7.04-8.04,18.74-12.68,29.14-11.53,5.95.41,11.04,4.52,15.97,8.5,6.68,5.39,12.99,10.48,20.74,5.68.6-.35,1.29-.99,1.89-1.56.27-.25.52-.49.77-.7.73-.98,1.74-2.03,2.71-3.05,2.28-2.37,4.43-4.61,4.84-7.73-.02-4.23-.32-8.7-.62-13.02-.37-5.47-.76-11.14-.57-16.76-.43-11.96,2.3-23.78,4.95-35.21,1.17-5.03,2.37-10.24,3.28-15.36.22-5.59.62-11.49,1-17.19.94-13.91,1.9-28.29.67-41.8.33-6.28-2.58-11.35-5.66-16.72-.67-1.16-1.34-2.33-1.97-3.5-7.92-12.51.09-28.81,2.74-33.51Z"/>
  <path class="uuid-3d79ac98-61aa-41f6-b337-299836f311de" d="m1429.83,1625.84c-2.52,1.17-4.97,2.66-7.36,4.12-4.97,3.02-10.11,6.15-16.23,6.75-1.88.21-3.76,0-5.58-.19-2.48-.27-4.85-.54-7.07.29,1.13,9.51-1.42,18.7-6.72,24-4.01,4-9.46,5.65-15.78,4.81-3.61-.16-6.87-1.61-10.02-3.01-2.16-.96-4.2-1.87-6.37-2.4-.94-.2-1.91-.23-2.94-.28-1.26-.06-2.55-.11-3.88-.47-6.6,5.13-13.21,9.87-21.17,12.16-1.64.45-3.32.51-4.94.57-3.11.11-5.79.2-7.57,2.92-.76.99-1.45,1.95-2.16,2.92-3.64,5-7.39,10.17-13.76,12.26-7.37,2.58-16.01,5.35-25.04,5.37-5.77.64-11.85-.32-17.72-1.24-5.59-.88-10.86-1.7-16-1.29l-2.06.2c-8.22.76-15.33,1.42-21.74,6.14-1.09,1.09-2.21,2.4-3.3,3.68-2.25,2.63-4.58,5.35-7.79,7.24-12.55,6.97-28-.47-34.06-4-2.95-2.16-5.23-4.91-7.44-7.56-2.92-3.52-5.69-6.85-9.68-8.82-2.38-1.14-5.22-1.75-8.23-2.4-6.36-1.37-13.55-2.93-15.66-10.53-9.76-2.07-19.88-1.39-27.91,1.91-1.21,1.34-2.58,2.55-3.91,3.72-1.97,1.73-3.83,3.37-5.18,5.39-3.23,7.04-8.75,17.07-18.47,21.36-6.05,2.74-13.07,2.92-18.76.48-4.71-2.02-8.09-5.62-9.77-10.42-.64-1.31-1.11-2.86-1.56-4.35-.76-2.49-1.47-4.84-3.09-6.59-3.4-1.05-7.86-.05-12.04,2.69-2.44,4.87-6.33,8.47-10.1,11.96-2.5,2.32-5.08,4.71-7.15,7.41-1.02,3.03-1.47,6.17-1.94,9.5-.47,3.32-.96,6.74-2.07,10.02-.04,10.79,2.55,25.08,15.05,32.29,8.72,6.62,18.72,8.24,29.31,9.95,3.7.6,7.52,1.22,11.23,2.07,3.75,1.27,7.35,2.92,10.83,4.51,5.05,2.32,10.28,4.72,15.56,5.76,3.21.7,6.55,1.15,9.77,1.58,6.9.92,14.04,1.88,20.45,5.33,10.89,5.49,20.64,10.61,29.38,17.54,4.43,3.55,8.18,7.84,11.81,11.99,4.67,5.33,9.49,10.84,15.68,14.64,1.35.86,2.54,1.94,3.7,2.99,1.97,1.78,3.83,3.47,6.25,3.96,5.85,1.34,11.83.51,17.61-.3,5.3-.74,10.78-1.5,16.24-.66,2.21.6,4.13,1.49,5.98,2.35,2.72,1.27,5.3,2.46,8.34,2.66l.31.07c7.34,2.93,15.07,3.24,22.35,3.3,9.64,1.11,18.28,6.74,25.47,12.1,6.99,5.16,11.24,12.65,15.35,19.9,3.09,5.46,6.29,11.1,10.62,15.6,2.3,1.81,5.08,3.04,8.03,4.34,2.06.91,4.19,1.85,6.17,3.04,8.74,4.95,18.75,2.74,28.44.59,1.94-.43,3.85-.85,5.73-1.21.79-.11,1.56-.16,2.33-.16,4.35,0,8.29,1.65,12.11,3.25,1.78.74,3.61,1.51,5.43,2.09,11.04-2.16,11.11-9.93,11.18-18.93.04-5.1.09-10.37,2.14-15.03,3.12-8.16,8.39-15.71,14.8-21.22.56-.41,1.07-.77,1.58-1.13,1.82-1.27,3.54-2.47,4.7-4.18-1.48-1.94-3.48-3.43-5.58-4.99-2.71-2.02-5.52-4.12-7.27-7.31-1.81-2.77-2.8-5.95-2.83-9.15l-.18-1.66c-.52-4.77-1.05-9.7.45-14.38-1.64-.61-3.26-1.16-4.84-1.69-8.63-2.91-16.78-5.66-20.72-16.73-9.27-15.56.69-33.08,9.12-44.98.61-16.97,6.79-31.45,15.86-47.95,1.01-2.48,1.84-5.21,2.65-7.85,1.43-4.7,2.91-9.57,5.77-13.93,4.81-11.83,11.68-22.63,17.75-31.6,3.77-6.52,6.02-13.93,8.15-21.16Z"/>
  <path class="uuid-3d79ac98-61aa-41f6-b337-299836f311de" d="m1521.8,1309.53c-1.16,8.93-2.59,19.03-14.41,18.55-2.35.02-4.46,1.32-6.6,2.75-2.03,1.21-4.21,1.44-6.33,1.67-.93.1-1.84.19-2.71.38-4.57,1.49-8.96,2.02-13.33,1.59-5.14-.38-12.95-.96-15.22-7.46-.19-.99-.31-1.9-.43-2.83-.48-3.81-.97-7.75-4.56-8.98-3.53-.46-8.82-.61-12.83,1.48-.6.57-1.29,1.67-1.95,2.74-.39.62-.76,1.21-1.13,1.7-2.27,3.51-4.57,5.98-7.11,7.61,3.98,4.39,7.2,8.69,9.57,12.8,2.99,7.12,4.36,14.69,5.68,22.01,1.16,6.43,2.36,13.07,4.62,19.26,4.16,8.08,10.23,15.14,16.11,21.98,3.22,3.75,6.56,7.63,9.57,11.67,7.49,10.77,12.23,24.55,14.94,43.41,1.65,6.28,6.48,10.65,11.59,15.27,3.48,3.14,7.07,6.39,9.62,10.36,10.18,12.11,9.19,29.5,4.83,41.69-3.6,9.08-11.62,12.53-19.37,15.86-3.54,1.53-7.21,3.1-10.37,5.19-1.35,1.12-3.31,1.89-5.22,2.63-2.87,1.12-5.59,2.19-6.26,4.46,5.99,2.18,10.45,8.72,9.76,14.42,1.54,1.68,2.36,3.82,2.37,6.22-.7,4.03-.81,8.03-.91,11.9-.06,2.37-.13,4.82-.32,7.23-.17,15.66-6.27,29.99-16.32,38.26-.99.96-2.14,1.83-3.25,2.67-2.27,1.72-4.41,3.33-5.5,5.93-6.24,9.03-7.35,20.72-2.8,28.62,3.6,6.25,10.28,9.32,18.9,8.63,9.26.85,25,.31,28.3-13.01.21-1.54.35-3.19.48-4.84.3-3.58.61-7.29,1.84-10.85,8.63-20.96,24.63-36.41,36.54-45.68,2.49-2.39,5.4-4.34,8.22-6.22,1.84-1.23,3.58-2.39,5.2-3.67,4.77-8.51,2.4-17.13-.1-26.27-.94-3.41-1.91-6.94-2.44-10.41-1.11-12.42,2.75-24.6,6.16-35.34,1.61-7.82,5.68-14.42,11.74-18.99,6.86-5.77,17.48-13.5,29.92-13.77,2.43-.11,4.8.38,5.8.59,1.8.29,3.63-.54,5.58-1.43,1.29-.59,2.63-1.19,4.03-1.49,5.02-.82,9.37-1.81,12.17-5.68.13-.98.2-1.96.27-2.95l.02-.37c.03-.6.04-1.21.04-1.83-13.37-6.45-13.03-19.95-10.64-33.6l.02-1.71c.08-5.16.16-10.5,2.36-15.45.35-.82.76-1.63,1.18-2.44.98-1.9,1.91-3.7,1.89-5.72-4.95-1.88-8.94-6.19-10.76-11.66-.25-.79-.49-1.64-.73-2.52-1.09-3.99-2.22-8.1-5.62-9.19-8.93-1.1-15.1-7.06-21.07-12.83-2.1-2.02-4.26-4.11-6.49-5.92-12.13,7.1-26.33,7.42-36.36.73h0c-.85-.59-1.71-1.16-2.58-1.74-6.99-4.66-14.23-9.48-16.53-18.3-2.7-7.75-1.15-17.3,4.27-26.11,2.05-3.3,4.37-7.02,5.23-10.74-1.84-3.79-3.12-7.71-4.36-11.5-1.2-3.67-2.33-7.14-3.94-10.53-.91-1.24-1.68-2.82-2.21-4.52-1.47.3-2.58.77-3.51,1.48-3.05,3.28-3.81,9.14-4.55,14.81Z"/>
  <path class="uuid-3d79ac98-61aa-41f6-b337-299836f311de" d="m985.25,887.47c1.8-4.6,4.86-11.06,10.25-13.25,3.07-1.24,6.61-.99,10.53.75,5.09.62,10.28.1,15.31-.39,1.04-.1,2.09-.21,3.13-.3,4.27-.89,8.45-2.79,12.48-4.62,1.95-.88,3.96-1.8,5.97-2.59.28-.86.43-1.76.57-2.71.19-1.24.39-2.52.94-3.78,0,0,0-.02.01-.02-.44-.45-.87-.9-1.3-1.36-.89-.94-1.81-1.91-2.78-2.76-1.03-.98-2.17-1.86-3.38-2.8-3.19-2.47-6.5-5.03-7.53-9.21-.79-9.76-3.7-10.92-8.98-13.02-2.19-.87-4.66-1.85-7.44-3.6-15.1-2.38-16.4-10.8-17.89-20.54-.53-3.43-1.07-6.99-2.25-10.62-.55-1.46-1.74-2.49-3-3.58-1.06-.92-2.15-1.86-2.96-3.15-1.43-2.98-.96-5.94-.5-8.81.38-2.39.74-4.66.06-6.79-.2-1.23-.74-2.17-1.31-3.16-.28-.48-.56-.96-.8-1.46-.34-.85-.63-1.64-.93-2.44-1.04-2.83-2.02-5.51-4.1-7.45-1.01-1.4-2.24-2.28-3.55-3.21-1.27-.9-2.58-1.83-3.59-3.15-.96-1.83-.8-3.66-.67-5.27.07-.84.14-1.64.07-2.37l-.04-.26c-.3-1.99-.56-3.71-1.54-5.17-1.84-2.24-4.85-2.16-8.05-2.1-1.93.06-3.94.09-5.79-.4-3.27-.75-7.31-2.11-9.26-5.88-.18-.32-.34-.68-.51-1.04-.48-1.03-.9-1.93-1.79-2.26-3.51-1.58-6.89-.66-10.47.3-4.08,1.11-8.29,2.24-12.82-.21-2.01-.61-3.79-2.1-4.84-4.13-1.06-2.05-1.25-4.41-.53-6.63.51-1.63.82-3.82-.51-5.19-2.27-.48-4.94.21-7.76.95-2.39.62-4.86,1.24-7.21,1.18-.24.58-.48,1.15-.74,1.72-.84,2.11-2.27,3.62-3.65,5.07-1.04,1.09-2.02,2.13-2.75,3.41-.94,1.71-1.05,3.68-1.16,5.77-.1,1.72-.19,3.51-.79,5.21-.53,1.77-1.6,3.31-2.65,4.8-1.3,1.86-2.54,3.62-2.59,5.74-.12,4.55,3.8,7.4,7.58,10.16.73.53,1.44,1.05,2.11,1.57,3.31,2.8,3.95,7.25,4.14,10.81.91,9.23-6.64,12.31-13.3,15.02-3.53,1.44-6.87,2.79-9.12,4.92-3.5,4.96-5.38,10.8-5.01,15.87.53,2.03,1.67,4.02,2.76,5.93,1.58,2.75,3.21,5.6,3.27,9.23-.04,1.35-.07,2.65-.1,3.95-.1,4.56-.2,9.27-.74,13.9-.59,3.24-1.89,6.16-3.15,8.98-.78,1.76-1.59,3.58-2.2,5.41,0,.03-.02.06-.04.1.54,1.01,1.14,2.01,1.74,3,1.69,2.79,3.43,5.68,3.87,9.11.61,1.93.29,4.49-.02,6.96-.61,4.87-.8,7.9,2.89,8.88,1.33.12,2.82.32,4.3.52,1.63.22,3.25.44,4.88.59l1.28-.5c4.55-1.78,9.25-3.61,14.5-2.84,12.17.26,13.3,7.44,14.39,14.38.5,3.14,1,6.39,2.47,9.3,2.91,3.49,7.3,4.31,11.94,5.18,3.84.72,7.82,1.46,11.04,3.95,1.37,1.25,2.05,2.64,2.7,3.99.44.91.86,1.77,1.45,2.5,3.08,1.86,6.81,2.1,10.42,2.34l.69.03c1.88.01,3.84.06,5.36-.62.62-.72.86-1.78,1.12-2.9.37-1.61.78-3.43,2.45-4.62,1.39-1.17,3.05-1.43,4.51-1.67.83-.13,1.61-.26,2.3-.54.96-1.27,1.97-2.52,3.64-3.02.57-.22,1.35-.44,2.17-.66,1.74-.47,3.9-1.05,4.39-2.11.07-.16.29-.62-.17-1.66-.37-.67-.84-1.34-1.3-2-.88-1.26-1.79-2.56-2.23-4.25v-.02c-.67-2.85.64-5.48,1.8-7.81l.28-.56Z"/>
  <path class="uuid-3d79ac98-61aa-41f6-b337-299836f311de" d="m605.24,622.66c-1.79-1.39-3.63-3.01-5.41-4.58-2.5-2.2-5.07-4.49-7.82-6.36-2.3-1.34-4.7-2.56-7.03-3.74-2.64-1.34-5.37-2.73-8.04-4.34-4.73-3.3-6.28-8-4.3-12.74-.49-.39-1-.82-1.51-1.25-3.53-2.96-7.54-6.31-11.29-4.8-5.37,2.29-12.75,5.44-18.95.9-2.21-1.38-3.61-3.28-4.08-5.63-1.06-5.23,2.71-11.35,5.64-15.5.6-1.13.65-2.46.1-3.85-1.02-2.54-3.83-4.62-6.09-5.37-2.08-.73-4.2-.78-6.45-.84-2.76-.07-5.61-.15-8.36-1.54-3.4-.99-7.77.25-10.2,3.08-2.36,3.41-6.66,5.64-10.93,5.64-.09,0-.17,0-.26,0-3.54-.07-6.5-1.7-8.32-4.58-.66-.94-1.14-1.92-1.6-2.87-.56-1.16-1.1-2.26-1.95-3.14-.51-.41-1.12-.83-1.73-1.26-.66-.46-1.32-.92-1.95-1.45-1.2-.08-2.44.36-3.19,1.17.55,4.67-.34,8.52-2.57,11.14-2.11,2.5-5.3,3.83-9.48,3.96-.84.16-1.56.37-2.19.67-.98.53-1.82,1.42-2.7,2.36-1.4,1.5-2.99,3.19-5.58,3.5-5.67,1.44-9.13-3.15-11.91-6.84-.82-1.09-1.59-2.11-2.39-2.97-1.64-1.36-4.92-.99-6.89.27-.99.64-2.37,1.64-3.14,2.93l-.03.29c-.08.95-.17,1.93-.54,2.94-2.57,5.89-11.4,5.11-14.04,4.73-3.66-.49-6.5.81-9.51,2.19-1.61.74-3.28,1.5-5.12,2.01l-.26.04c-1.2.02-2.4-.04-3.6-.08-2.45-.1-4.77-.2-7.07.23-1.98.43-3.72,1.41-5,2.85-.23.64-.34,1.34-.45,2.08-.13.87-.27,1.76-.62,2.67-1.17,3.66-3.53,6.77-5.82,9.78-2.39,3.15-4.65,6.12-5.67,9.72-1.69,3.96-1.91,8.22-2.13,12.34-.25,4.88-.52,9.93-3.09,14.49-2.83,4.85-6.22,7.28-9.84,7.17-2.22-.07-4.18,1.19-4.83,2.92-2.11,6.2-6.58,9.04-12.9,8.2l-.61-.1c-5.27-.86-10.24-1.68-15.53-1.79-.98-.09-1.9-.1-2.78-.07,2.29,9.13.61,18.95-4.58,26.54-.64,2.11-1.18,4.27-1.7,6.36-1.17,4.68-2.38,9.51-4.81,13.89,12.36,1.84,18.85-2.76,26.99-8.53,3.3-2.34,6.7-4.75,10.85-7.01l.25-.1c16.67-3.93,19.85-11.65,25.12-24.44.82-2,1.7-4.11,2.67-6.34,4.14-6.83,8.55-11.63,15.27-16.69,1.53-1.01,3.06-1.89,4.58-2.78,3.66-2.13,7.12-4.14,9.9-7.19,2.07-2.77,3.53-6.16,4.94-9.44,1.4-3.25,2.85-6.61,4.97-9.55,7.49-8.29,21.56-21.74,32.44-19.35,4.97,1.07,8.69,5.22,11.08,12.35,3.59,1.31,7.35-.72,10.68-2.51.49-.26.97-.52,1.42-.76,5.27-2.67,9.19-3.4,14-2.61,3.24,1.34,6.09,2.92,8.84,4.45l1.5.83c1.96,1.37,3.05,3,4.11,4.57.72,1.07,1.4,2.09,2.3,2.97,1.93,1.55,4.57,2.44,7.04,2.33.45-.16,1.11-.41,1.77-.66,1.34-.51,2.72-1.03,4.3-1.17,5.2-.72,10.8.23,16.16,2.77,16.97,7.63,29.96,17.48,38.59,29.28.89,1.16,1.49,2.71,2.08,4.2,1.19,3.05,2.09,4.99,4.08,5.33,5.15-5.73,11.03-5.97,14.78-3.58,2.5-.33,4.98-.29,7.4.12,1.94-1.95,4.24-3.9,7.01-5.94,1.33-3.85-1.13-8.85-4.04-11.92Z"/>
  <path class="uuid-3d79ac98-61aa-41f6-b337-299836f311de" d="m891.76,479.75l-.06-1.52c-.03-.81-.48-1.56-1.17-1.97-4.46-2.25-9.4-2.1-14.65-1.93-2.35.07-4.78.15-7.14-.02-.9-.06-1.71-.45-2.26-1.09-1.63-.05-3.4-.06-4.78.44l-.9.43c-4.35,2.05-8.85,4.17-13.97,3.55-1.58-.05-3.15-.56-4.67-1.06-1.86-.61-3.63-1.18-5.33-.83-3.46,1.27-5.94,4.02-8.17,6.73-4.14,5.17-11.04,6.67-14.79,7.1-6.71.7-12.43-.25-16.98-2.81-.71-.25-1.57-.53-2.42-.81-2.54-.84-4.93-1.64-7.21-3.18l-.2-.18c-2.93-3.41-7.12-4.91-12.43-4.39-1.7.12-3.24.91-4.88,1.74-.92.47-1.86.96-2.86,1.33-4.54,1.85-9.34,1.78-13.98,1.71-2.48-.04-5.04-.08-7.49.19-11.61,4.96-24.49,3.99-33.65-2.56-1.39-1.07-4.9-3.34-8.35-1.67-.98.43-1.98.74-2.94,1.03-2.03.62-3.95,1.2-5.16,2.82-.95.98-1.51,2.11-2.11,3.3-.81,1.61-1.65,3.27-3.28,4.46-2.86,2.3-6.55,2.84-10.1,3.07-1.2.08-2.42.22-3.66.37-4.11.5-8.36,1.01-12.24-.97-.82-.56-1.53-1.07-2.25-1.58-3.76-2.71-7.65-5.51-12.16-5.51h-.01c-1.54-.18-3.03-.12-4.6-.05-3.46.15-7.06.32-9.98-2.26-.88-.68-1.76-1.54-2.62-2.37-1.16-1.13-2.25-2.19-3.41-2.91-2.36-1.66-5.15-1.78-8.11-1.91-3.32-.15-6.74-.29-9.63-2.64-2.26-1.55-3.39-3.95-4.49-6.27-.61-1.31-1.2-2.54-1.97-3.59-1.26-1.12-3.54-1.62-5.21-1.06-4.32,6.32-12.14,8.14-17.68,8.96-5.25,1.46-13.1,2.32-19.97-1.99-2.33-1.23-3.98-3.13-5.57-4.96-1.51-1.74-2.94-3.39-4.9-4.37-6.39-.53-13.42,3.61-21.5,12.78-.5,3.69-2.14,7.02-3.74,10.24-1.22,2.47-2.37,4.8-3.03,7.26-.09.47.71,1.24,1.29,1.81.21.2.4.4.57.58,4.17,2.54,5.73,7.6,4.52,14.67-.32,2.13-1.43,3.88-2.51,5.59-1.08,1.71-2.1,3.33-2.24,5.19-.55,1.77-.28,3.58,0,5.5.46,3.17.99,6.77-2.46,9.11-1.02.78-2.21,1.36-3.35,1.92-1.53.74-2.98,1.45-4.01,2.63-.48,2.54-.79,5.18-.09,7.56.72.31,1.26.86,1.56,1.56,3.4-.54,6.9-.09,9.97,1.31,8.68.08,20.33,1.54,22.6,12.82.8,3.78-1.25,6.89-3.23,9.89-2.07,3.13-3.85,5.84-2.4,9,3.44,3.39,7.2,1.95,11.55.31,2.89-1.09,5.87-2.22,8.9-1.87,2.61.94,8.4,3.39,12.52,7.6,2.02-1.77,4.55-3.03,7.22-3.59,1.11-.32,2.33-.69,3.58-1.07,6.74-2.05,14.38-4.37,21.12-3.31,4.35,1.02,7.12,4.12,9.79,7.12.82.92,1.64,1.83,2.49,2.68,1.6,1.45,3.7,2.16,5.74,2.85.55.18,1.09.37,1.62.56,6.99,1.74,13.53,4.06,15.57,12.84.04.12.2.26.26.28,5.68-5.34,15.66-5.49,21.42-.36,4.32,1.29,8.12,2.66,10.96,6.11,1.55,2.2,2.48,4.86,3.37,7.42,1.69,4.84,3.28,9.42,8.53,10.47,1.83.37,3.37.45,4.47.25,1.45-.37,2.87-1.15,4.38-1.98,1.42-.79,2.9-1.6,4.5-2.07,5.58-1.94,12.55-.75,18.16,3.14,1.65.93,3.16,2.15,4.62,3.34,2.07,1.68,4.02,3.26,6.44,4.04,1.31.35,2.59-.65,3.07-1.11,4.62-4.95,10.65-4.96,16.49-4.96,2.54,0,5.17,0,7.58-.45,5.26-1.41,7.88-5.31,10.66-9.44,1.66-2.47,3.38-5.02,5.73-7.07,1.46-1.21,3.19-1.44,4.71-1.64,1.27-.17,2.47-.33,3.39-.99,3.25-2.95,8.01-4.22,12.66-3.29,4.33.85,7.83,3.47,9.63,7.19,1.08,1.53,3.17,1.72,5.39,1.92,1.01.09,2.06.18,3.03.43,2.34.25,4.57,1.64,6.7,4.19,1.41.88,3.17.77,5.02.65.65-.04,1.32-.08,1.98-.08,1.22,0,2.45.14,3.63.68,2.67,1.6,4.39,4.1,5.06,7.28.9,4.26-.2,9.39-2.81,13.07-1.4,3.1-2.72,6.97-1.23,10.88.2.54.35,1.09.49,1.63.37,1.42.65,2.32,1.54,2.78.96.46,1.79.77,2.74,1.09,5.13,1.62,7.92,5.96,10.62,10.16.95,1.48,1.84,2.87,2.82,4.14,7.68,7.4,20.49,13.74,33.27,9.29.26-.48.65-.86,1.14-1.13.54-2.18,1.6-4.97,3.41-8.92.41-1.59.54-3.79.68-6.12.38-6.41.96-14.31,9.79-13.89.51,0,1.07.01,1.65.03,2.36.07,4.59.14,6.21-1.18,1.95-2.83,4.45-4.54,7.41-5.06,3.69-.65,8.03.63,12.19,3.64.71.72,1.22,1.37,1.73,2,1.28,1.6,2.49,3.11,4.44,3.68,1.06.12,2.29.21,3.51.29,4.51.33,9.17.66,13.15,4.17.81.62,1.54,1.36,2.24,2.08,1.04,1.07,1.97,2.01,3.18,2.56,3.3-3.88,6.87-8.25,10.88-13.33-17.6-9.33-35.77-19.9-49.02-36.47-5.7-7.08-10.03-13.74-13.22-20.35l-.02-.03c-2.5-5.69-3.78-11.79-5.02-17.69-1.14-5.46-2.33-11.11-4.48-16.35-6.26-13.09-9.28-27.19-8.94-41.87-.66-8.95,4.07-18.26,11.61-22.96-.4-.62-.76-1.25-1.12-1.89-2.02-3.88-2.17-8.21-2.31-12.39Z"/>
  <path class="uuid-3d79ac98-61aa-41f6-b337-299836f311de" d="m954.46,669.23c-2.8.3-6.14-1.46-8.9-4.71-1.96-2.26-5.15-3.78-8.51-4.05-6.99.55-12.63-1.99-15.29-6.93-.31-.49-.97-.83-1.68-1.2-.23-.12-.45-.23-.67-.35-2.62-1.27-5.33-2.24-7.03-.57-3.09,4.01-7.38,6.07-11.98,5.67-.43.02-1-.02-1.6-.05-1.81-.13-3.07-.13-3.81.7-.6,2.42-.78,4.99-.96,7.47-.17,2.37-.35,4.82-.88,7.19-.39,1-.76,1.84-1.13,2.68-1.14,2.57-2.21,5.01-2.43,7.63,3.98,1.06,7.37,1.37,10.35.93,1.23-.37,2.62-.87,4.03-1.38,4.63-1.68,9.42-3.42,14.34-1.93,1.87.89,3.02,2.27,3.5,4.06.86,3.28-.65,7.07-2.2,9.32-1.79,2.5-4.32,3.99-6.76,5.43-2.35,1.39-4.56,2.69-6.1,4.8l-.18.19c-1.53,1.25-2.57,2.81-3.37,4.34.91-.18,1.81-.37,2.71-.57,3.17-.68,6.45-1.39,9.8-1.44,2.46.44,4.27,1.73,5.41,3.75,1.57,2.76,1.79,6.74.55,10.13-.07.31-.02.82.19,1.47,1.84,2.45,6.29,2.52,8.87,1.97,1.2-.23,2-.56,3.02-.97l.58-.24c5.53-1.73,13.01-1.25,16.56,3.82.25.46.43.82.61,1.17.96,1.92,1.63,3.12,3.23,3.51,2.64,1.13,5.36,1.15,8.25,1.17,2.23.02,4.54.03,6.73.58,5.84,2.34,8.53,8.37,7.9,17.48,6.18,4.12,10.32,9.61,11.71,15.53,3.57,5.54,4.43,12.13,2.62,20.15,0,1.01,1.12,1.88,2.29,2.8.71.56,1.44,1.13,1.96,1.83,3.11,3.69,3.85,8.27,4.57,12.71.12.75.24,1.5.38,2.25.36,6.03,1.35,11.8,6.11,14.1,1.57.92,3.12,1.25,4.77,1.61,1.38.3,2.8.6,4.19,1.25,2.34,1.7,4.34,2.51,7.06,3.38,9.17,2.61,11.42,10.48,12.36,17.88,1.69,2.45,4.02,4.31,6.49,6.28,2.15,1.72,4.38,3.49,6.17,5.72.4.08.76.24,1.09.48.79-.23,1.62-.33,2.46-.33,3.67,0,7.69,1.89,11.07,3.49.58.27,1.14.54,1.67.78.59-.42,1.33-.58,2.08-.47.73-.55,1.44-.99,2.12-1.31,1.06-.8,2.54-1.04,3.85-1.25,1.41-.23,2.64-.42,3.4-1.32,1.47-1.71,2.73-3.71,3.94-5.64,1.34-2.13,2.72-4.33,4.42-6.22,2.3-4.43,7.13-8.56,12.42-7.49,1.23-.07,2.51-.05,3.81-.03,3.42.04,6.95.1,9.67-1.58.45-.31,1-.7,1.38-1.11,3.9-5.9,9.94-9.97,16.28-10.96-2.35-6.6-4.49-13.38-6.57-19.95-3.3-10.43-6.71-21.21-10.96-31.35-2.54-9.64-7.76-18.01-12.82-26.1-1.33-2.14-2.67-4.28-3.96-6.44-1.34-2.96-2.42-5.97-3.46-8.88-2.15-6-4.38-12.21-8.51-17.15-.78-.16-1.59-.39-2.43-.68-1.17.08-2.26.06-3.33-.04-6.24-.72-11.33-3.53-16.25-6.24-1.69-.93-3.38-1.87-5.13-2.72-12.59-5.99-24.24-13.57-33.67-21.9-2.43-1.71-4.97-3.43-7.51-5.15-4.6-3.11-9.36-6.34-13.86-9.83l-.1-.09c-4.5-4.55-10.32-6.37-16.48-8.3-3.27-1.03-6.65-2.09-9.81-3.59l-3.28-1.72c-1.43,1.83-2.93,3.62-4.43,5.41-2,2.38-4.06,4.85-5.89,7.34-1.5,2.85-3.58,3.66-5.05,3.82Z"/>
  <path class="uuid-3d79ac98-61aa-41f6-b337-299836f311de" d="m1789.43,1237.07c-1.04-1.01-2.06-2-3.03-2.98-3.48-2.53-6.7-5.62-9.81-8.6-3.25-3.12-6.61-6.34-10.35-8.97-13.77-6.22-25.57-17.08-33.95-31.33-9.26-12.62-23.51-18.39-38.54-23.64-10.47-6.01-21.07-9.26-29.16-11.43-15.73-5.33-29.94-14.12-43.68-22.63-4.67-2.89-9.49-5.88-14.29-8.68-16.23-10.12-35.63-12.68-54.39-15.16-4.97-.66-10.1-1.33-15.07-2.14l-3.11-.57c-19.64-3.61-39.96-7.35-58.39-15.82-4.55-2.09-9.46-3.88-14.22-5.63-13.3-4.87-27.05-9.91-35.85-21.97-6.41-8.99-12.56-19.56-9.69-29.91,2.6-8.21,9.45-13.65,16.08-18.91,2.86-2.27,5.56-4.42,7.86-6.73,1.88-1.35,4.44-5.81,4.08-8.37-.11-.78-.45-1.23-1.12-1.46-5.84-2.54-10.39-5.67-13.95-9.61-11.24-3.28-24.53-2.71-38.44,1.63l-2.86.62c-16.11,3.48-32.78,7.08-49.51,7.08h-.23l-1.77.07c-7.8.29-15.85.61-23.29-1.87-.66,1.99-1.23,3.72-.42,5.15,4.74,2.69,3.71,7,2.8,10.81-.34,1.42-.69,2.88-.73,4.2,3.86,3.73,4.9,8.94,2.91,14.71-1.97,4.98-4.52,10.36-10.04,11.69-.67.22-1.45.39-2.23.56-1.21.26-2.36.51-3.36,1.03-1.73,1.45-3.14,3.84-3.71,6.44-.45,6.01-.26,11.04.61,15.22,1.8,1.03,3.98,1.13,6.28,1.23,2.52.11,5.13.22,7.4,1.62,3.94,1.85,5.14,6.95,3.94,10.58-.19.55-.42,1.09-.65,1.63-.43,1.01-.87,2.04-.98,2.99,4.05,2.09,8.2,4.94,9.42,10.05.32,1.07.35,2.25.38,3.3.07,2.54.21,3.46,2.51,3.55,10.72-3.08,14.36.49,15.53,4.04,1.47,4.17,1.01,8.48.57,12.65-.27,2.56-.53,4.98-.37,7.36,2.55,4.45,7.86,5.26,13,6.05,1.2.19,2.38.37,3.5.59,2.72.69,5.61,1.17,8.41,1.63,4.81.79,9.77,1.61,14.19,3.51,2.71-5.64,9.77-9.29,15.49-10.34,2.23-.41,4.52-.34,6.72-.3,3.4.08,6.6.16,9.43-1.35,7.04-3.75,24.44-11.28,33.79-.41,2.71,4.07,3.14,8.66,3.55,13.1.17,1.85.33,3.61.65,5.31,1.19,5.36,7.79,8.8,12.68,8.14,10.29-3.7,15.87.37,23.19,7,3.53,2.67,6.29,6.27,8.96,9.76,3.58,4.67,6.97,9.09,12.19,11.57,3.78,2.14,7.26.11,10.94-2.03.9-.53,1.79-1.04,2.66-1.48,7.45-3.3,16.5-3.78,25.52-1.42,10.28,4.46,10.29,15.32,10.31,24.91,0,4,0,7.78.67,11.03.41,5.99,4.57,9.56,8.96,13.34.73.62,1.45,1.25,2.16,1.88,1.56-3.68,3.27-7.21,5.91-10.22,1.56-1.37,3.16-2.39,4.71-3.38,1.92-1.23,3.74-2.39,5.32-3.99,8.93-6.29,20.49-3.87,29.79-1.93l.71.15c9.14,2.55,11.33,12.23,11.82,17.96,3.18,4.86,9.71,6.05,16.02,7.19,2.31.42,4.49.81,6.5,1.38,7.28,2.09,14.93,3.95,21.38,1.86,11.24-5.01,27.62-4.84,38.85.46,7.48,3.53,12.5,9.06,14.52,16.01,2.7,2.31,6.03,3.85,9.26,5.33,4.56,2.1,9.27,4.27,12.52,8.67,3.81,4.25,5.06,9.49,6.27,14.56.67,2.84,1.31,5.52,2.38,8.06,5.6,5.96,11.72,12.12,19.42,16.4,4.59,1.98,8.59,3.57,13.86,5.11,2.06-4.14,2.35-9.1,2.62-13.9.13-2.15.26-4.38.55-6.49v-.04c.88-4.76,3.33-8.94,5.7-12.98,2.79-4.75,5.42-9.24,5.67-14.56-2.44-6.79-8.26-12.45-13.9-17.92Z"/>
  <path class="uuid-3d79ac98-61aa-41f6-b337-299836f311de" d="m928.3,191.43c-.1.23-.16.5-.22.83-.15,1.02-.2,1.91-.17,2.93l.08.78c.2,1.82.45,4.09-1.44,5.61-.99.62-1.91,1.11-2.82,1.59-2.09,1.1-4.07,2.13-5.49,3.9-1.82,1.82-2.54,4.04-3.29,6.39-.75,2.32-1.52,4.72-3.36,6.69-1.46,1.79-3.29,3.47-5.05,5.08-2.62,2.4-5.33,4.88-6.92,7.88-.65,3.09-.81,5.97-.52,9.31,0,0,.13.2.24.31,7.22,4.77,10.73,8.86,11.6,13.52.83,4.48-.84,9.39-5.42,15.9-.74,4.76,2.19,7.95,5.29,11.32,2.83,3.08,5.76,6.26,6.11,10.85,1.31,7.11,6.88,13.99,13.54,16.62,3.48,1.38,8.76,2.19,14.11-1.76,4.83-2.48,10.19-3.73,15.52-3.73,4.2,0,8.38.78,12.26,2.34,7.04,2.83,12.33,8.03,15.02,14.72.32-.11.66-.23,1.02-.16.41-.66.81-1.31,1.19-1.95,3.43-5.71,6.67-11.1,18.68-7.05.99.27,2.04.57,3.08.87,9.75,2.79,18.17,5.21,23.62-5.18l.19-.25c5.51-5.41,13.42-9.72,22.34-12.16.2-3.15-.5-6.75-2.03-10.48-7.69,1.39-15.61-.57-20.87-5.23-4.54-4.03-6.71-9.77-6.11-16.14.35-4.94,3.43-8.53,6.4-12,2.41-2.82,4.7-5.49,5.5-8.76-3.24-2.48-7.13-3.25-11.24-4.07-3.44-.69-7.01-1.4-10.22-3.2-8.91-4.69-12.44-16.53-7.86-26.38,3.43-8.91,11.02-14.87,18.35-20.65l.84-.66c.71-.74,1.7-1.49,2.66-2.21,2.79-2.11,4.51-3.61,4.14-6.02-10.72-4.85-23.02-4.63-33.88-4.43-1.21.1-2.49.22-3.78.34-7.73.72-15.72,1.46-23.2-1.8-1.62-.66-3.27-1.37-4.93-2.08-5.06-2.17-10.29-4.41-15.32-5.58h-.05c-4.1-1.16-8.19-.74-12.52-.29-1.57.16-3.18.33-4.79.41,1.98,4.26,2.79,8.51,2.53,13.25.54,2.98-1.37,5.95-4.86,7.34-1.25.65-2.6,1.17-3.9,1.67-1.43.55-2.78,1.08-4.03,1.78Z"/>
  <path class="uuid-3d79ac98-61aa-41f6-b337-299836f311de" d="m673.53,327.96c1.77,1.25,3.85,1.31,6.19.2l1.93-.9c4.4-2.08,8.95-4.24,14.27-3.55.17-.02.34,0,.51,0,3.48-4.97,9.4-10.52,15.32-10.64h.19c3.05,0,5.66,1.46,7.76,4.35,1.5,2,1.11,4.33.77,6.39-.09.55-.18,1.1-.23,1.62,0,1.02,0,2.15-.02,3.3-.06,4.5-.11,9.15.89,13.34,1.31,4.06,6.71,3.93,11.46,3.79,1.44-.04,2.81-.07,3.97.02,7.77.36,12.51-5.54,16.45-11.04,2.37-3.39,2.43-7.42,2.49-11.69.03-1.99.06-4.05.35-6.04.49-6.46,4.18-12.07,9.39-14.23,1.29-.51,2.52-.86,3.7-1.2,1.57-.45,3.05-.88,4.51-1.62,1.29-.95,2.63-2.11,4.06-3.35,6.06-5.25,13.6-11.76,21.01-4.12h.12c2.36,0,4.85-1.08,7.27-2.13.64-.28,1.27-.55,1.89-.8.38-8.81,1.26-21.5,14.72-21.92l1.72-.41c3.98-.9,7.74-1.75,11.19-3.46,1.42-4.16,3.06-11.65-.51-17.81-1.4-1.55-3.41-2.58-5.53-3.68-2.5-1.29-5.09-2.62-6.97-5.18-1.74-1.87-2.68-4.53-2.45-7.02.19-2.06,1.15-3.8,2.76-5.03.49-.63,1-1.27,1.53-1.91,2.79-3.43,5.68-6.97,4.93-11.37-.24-2.31-.72-4.06-1.27-5.96,0-.02-.02-.05-.03-.08-2.31-.19-4.63-.55-6.88-.9-2.15-.33-4.36-.68-6.53-.86-3.13-.36-6.39,1.06-9.95,4.33-4.1,3.84-7.46,8.52-10.72,13.05-1.48,2.07-2.97,4.12-4.51,6.11-.8,1.73-1.05,3.91-1.32,6.22-.4,3.45-.81,7.01-3.59,9.67-3.94,3.14-8.71,2.24-12.92,1.44-.68-.13-1.35-.25-2-.36-1.07.98-1.63,2.38-2.22,3.86-.62,1.57-1.27,3.2-2.58,4.49-5.2,3.48-12.06,3.72-16.78,2.81-2.24-.6-3.96-2.15-4.91-4.35-1.19-2.76-1.05-6.24.35-8.88.85-1.48,1.96-2.9,3.03-4.27.71-.9,1.4-1.79,1.98-2.63,4.83-7.49,7.52-15.97,7.56-23.86-.37-3.42-3.25-4.12-7.94-4.84-2.04-.31-4.15-.64-5.78-1.48-2.44-2.05-4.77-2.34-7.95-1.11-.99.98-1.54,2.34-2.13,3.77-.59,1.44-1.2,2.93-2.31,4.17-1.73,1.64-3.85,2.19-5.9,2.71-.97.25-1.89.49-2.75.83-8.98,5.5-10.67,4.57-18.08-1.35l-.85-.67c-3.66-1.31-8.2,1.23-9.51,2.05-.73.51-1.46,1.15-2.18,1.78-1.76,1.54-3.59,3.14-6.14,3.54-.19.01-.35.01-.49,0-.76,3.14-3.39,4.91-5.74,6.49-1.01.68-1.97,1.32-2.75,2.04-2.25,1.86-3.65,5.08-3.79,8.64.1.44.57,1,1.12,1.65.46.54.93,1.1,1.26,1.8,2.14,3.49,2.23,7.39,2.31,11.17.02.78.04,1.57.07,2.35.14.73.31,1.6.48,2.48,1.32,6.73,2.81,14.35-2.25,20.54-.74,1.04-1.63,2.07-2.5,3.06-.6.69-1.19,1.36-1.71,2.03-1.37,2.32-2.25,5.35-2.42,8.41.25,2.69.76,5.45,1.26,8.13,1.12,6.04,2.27,12.29.67,18.51-.37,3.72,1.14,7.8,3.63,9.56Z"/>
  <path class="uuid-550aa943-d1dc-4e2d-a61b-c1164aeca6d7" d="m873.59,179.31c-1.98.04-4-.33-5.95-.66-3.4-.58-6.61-1.13-9.6.16-.42.31-.8.74-1.18,1.43-3.54,8.79-8,19.87-17.76,24.32-1.54.57-3.11.94-4.8,1.16,1.9,6.2,1.38,14.35-4.05,19.63-.72,1.04-1.54,1.99-2.25,2.83-1.17,1.35-2.01,2.33-1.94,3.2.07.9,1.05,2.11,3.08,3.81,1.21,1.01,2.65,1.7,4.18,2.44,1.96.95,3.99,1.93,5.58,3.65,2.52,2.88,3.92,6.98,4.19,12.23.35,4.18-.55,8.15-2.02,12.81-2.19,3.64-6.25,4.63-9.84,5.5-1.23.3-2.39.59-3.44.95-1.47.52-3.05.74-4.57.96-2.46.35-4.79.67-6.32,2.23-2.52,4.71-2.92,9.87-2.99,13.85.02,1.94-.61,3.47-1.83,4.41l-1.59.8c-5.38,2.65-12.74,6.27-17.69.88-.75-.77-1.83-1-2.94-.6-2.93,1.33-5.52,3.59-8.02,5.77-1.67,1.46-3.4,2.97-5.24,4.21l-.23.12c-13.43,4.62-14.53,5-14.82,19.18.88,9.79-5.75,17.41-10.82,22.29-5.37,5.01-12.92,5.38-19.6,5.07-13.16.33-16.22-6.05-16.54-11.55-.74-7.72-.7-13.89.12-19.35-.17-.59-.62-1.13-1.26-1.5-.76-.44-1.68-.57-2.39-.33-10.44,4.31-13.21,14.57-16.14,25.43-1.32,4.88-2.67,9.92-4.8,14.24-1.22,2.93-3.42,5.31-5.56,7.6-2.85,3.07-5.54,5.97-5.76,10.04.25,11.29,11.93,16.91,22.67,17.33,7.62,1.37,13.57,8.66,13.98,16.98.19,1.12.24,2.41.28,3.65.12,3.24.23,6.29,2.91,8.08,2.15,2.19,4.77,3.63,7.3,5.03,4.12,2.28,8.38,4.63,10.42,9.67.5,1.88.65,3.67.79,5.41.18,2.17.34,4.23,1.08,6.19,2.04,1.47,3.46,1.85,4.81,1.31,4.18-3.26,9.02-3.86,12.96-1.59,2.19.99,3.41,3.09,4.5,4.95.56.95,1.09,1.85,1.71,2.54,1.21.54,2.49.91,3.85,1.31,2.75.79,5.58,1.61,7.74,3.92,1.39,1.58,4.61,6.91,4.78,10.85,2.95.16,6.44.72,9.19,2.83l.29.26c1.92,1.81,3.57,3.38,5.96,4.06.81.29,1.55.53,2.29.78,2.28.76,4.64,1.54,6.7,2.8,5.52,1.11,13.3,1.52,19.38-2.68.58-.62,1.3-1.41,2.03-2.2,3.31-3.62,6.74-7.37,11.94-8.43,2.51-.41,4.82.3,7.06.99,1.37.43,2.65.82,3.93.96,3.23.31,6.28-.97,9.52-2.28,4.57-1.85,9.3-3.76,14.48-1.05,1,.02,2.1-.02,3.24-.03,1.19-.02,2.43-.04,3.69-.04,6.57,0,13.66.55,17.35,4.68,2,2.23,2.77,5.28,2.29,9.08.11,3.78,1.12,6.99,3.08,9.64,1.77-.45,3.54-.65,5.31-.62l.28-.43c4.07-6.32,8.27-12.86,11.84-19.54-2.38-4.73-6.48-7.89-10.83-11.23-3.62-2.79-7.37-5.66-9.98-9.54-1.41-2.36-2.13-4.89-2.82-7.34-.54-1.91-1.05-3.72-1.85-5.44-1.74-2.88-4-5.63-6.19-8.29-1.78-2.17-3.63-4.41-5.21-6.75-5.55-6.92-6.97-16.52-3.74-25.61,3.19-9,10.26-15.49,18.91-17.36,3.55-1.09,7.15-.46,10.62.15,3.19.56,6.21,1.09,9.18.32,3.35-2.55,6.47-5.57,9.48-8.49,2.9-2.81,5.89-5.7,9.13-8.24,6.68-8.52,16.65-18.36,32.52-17.75,1.33-1.62,1.9-3.7,2.5-5.88.96-3.48,1.95-7.09,6.18-8.75,1-.43,2.06-.65,3.08-.86,1.35-.28,2.63-.54,3.67-1.3-.09-.36-.19-.7-.33-1.01-1.35-3.64-3.29-6.9-5.95-10.04-6.21-6.09-16.45-6.95-23.81-5.05-2.04.62-4.11,1.57-6.11,2.5-4.75,2.19-9.66,4.45-15.38,2.79-8.92-2.19-16.65-9.65-19.65-18.99-.37-1.01-.64-2.13-.89-3.22-.42-1.79-.82-3.48-1.71-4.82l-.19-.17c-5.24-5.34-11.76-11.99-9.26-20.64.61-1.24,1.29-2.31,1.95-3.34.79-1.23,1.54-2.4,2.03-3.52,1.21-1.89,1.54-3.8,1.07-5.8-.62-2.63-2.59-5.16-5.29-6.77-5.02-2.74-7.41-6.7-6.7-11.15-1.07-8.52,4.46-13.82,9.8-18.95,1.78-1.7,3.62-3.47,5.13-5.3.48-1.1.86-2.23,1.26-3.42.73-2.19,1.49-4.45,2.91-6.48,2.68-4.13,6.83-6.53,9.97-8.01-1.16-9.41,2.67-10.98,7.47-12.94,1.7-.69,3.6-1.47,5.56-2.7v-1.06c0-2.52-.01-5.11-.55-7.43-.38-1.12-.97-2.26-1.54-3.36-.52-1.01-1.06-2.05-1.47-3.16-3.57-1.18-7.07-2.67-10.47-4.11-3.75-1.6-7.29-3.1-10.92-4.23-2.07-.46-4.21-.2-6.49.07-1.53.19-3.09.37-4.69.34-.21.72-.38,1.46-.55,2.2-.2.88-.41,1.76-.67,2.65-3.57,9.03-13.66,15.67-24.01,15.86Z"/>
  <path class="uuid-3d79ac98-61aa-41f6-b337-299836f311de" d="m1118.32,835.01c-1.23,1.83-2.8,4-4.93,5.16-3.9,2.57-8.56,2.48-13.07,2.38-2.29-.05-4.46-.09-6.47.21-2.58,1.5-4.51,4.43-6.38,7.27-.87,1.32-1.77,2.69-2.72,3.87-1.84,3.78-5.23,9.08-12,9.45-1.54.54-2.74,1.39-3.86,2.72.5.69,1.15,1.29,1.83,1.91.96.88,1.96,1.79,2.64,3.06,1.97,3.07,2.27,6.42.83,9.35-1.61,3.27-5.24,5.53-9.47,5.9-2.59.94-6.13,1.01-9.21.18-1.83-.34-2.88-.49-3.85.27-1.12,1.23-1.48,4.04-1.78,6.28-.09.71-.18,1.37-.28,1.95-.06.85-.07,1.89-.08,2.95-.04,4.52-.09,10.14-5.56,12.02,0,.02-.01.35-.03.56l-.04.44c-.18.82.42,1.4.8,1.69,4.98,4.05,8.41,9.48,9.96,15.73.48,2.45,1.15,4.18,2.15,5.51,1.38,2.73,4,3.51,6.78,4.34,1.66.49,3.37,1,4.87,1.91,2.61,1.21,4.82,3.74,5.97,6.87,1.15,3.14,1.08,6.49-.19,9.19l-.18.26c-7.33,7.86-13.78,10.75-19.67,8.89-1.5-.6-2.68-1.52-3.83-2.41-1.68-1.3-3.14-2.33-5.1-2.38-1.38-.06-2.77-.1-4.09.19-.44.47-.85.97-1.27,1.48-.75.91-1.53,1.85-2.48,2.66-.64.67-1.49,1.27-2.3,1.85-1.12.8-2.18,1.55-2.79,2.59l-.21.92c-.49,2.06-.99,4.19-.11,5.76.75.82,1.53,1.97,2.28,3.08,1.55,2.28,3.01,4.43,5.17,5.36,2.79.68,5.65,1.9,8.41,3.07,3.86,1.64,7.5,3.18,11.36,3.56,17.66-1.69,20.69,8.71,24.54,21.93l.54,1.85c1.91,2.61,5.22,3.92,8.5,3.39,4.54-.84,9.61,1.19,12.92,5.11,1.19,1.13,3.41.23,5.57-.8,9.44-5.54,15.97-4.93,25.01,2.3,5.29,2.14,11.01,2.87,16.97,2.18.08,0,.16,0,.23,0,4.45,0,7.94,2.71,11.02,5.1.54.42,1.08.84,1.61,1.23.43.02.83.11,1.19.25,1.63-1.27,3.48-2.28,5.64-3.07l.79-.25c2.53-.8,4.93-1.56,6.73-3.24.4-.47.94-1.04,1.5-1.62,1.87-1.93,3.8-3.94,3.45-6.22-.25-.61-.64-1.35-1.02-2.08-.7-1.34-1.43-2.73-1.63-4.43.26-6.84,6.39-11.69,11.48-14.57,8.83-4.29,20.65-2.02,27.54,5.25,2.14,3.41,3.59,7.28,4.11,10.79.18,1.21.73,2.35,1.67,3.45,2.52-1.49,4.65-3.6,6.58-5.69,1.91-3.11,3.04-6.63,4.24-10.34,1.14-3.53,2.32-7.18,4.22-10.5,1.73-8.24,3.9-16.79,9.43-23.22-.26-.28-.52-.57-.76-.88-2.59-3.07-3.81-6.77-5-10.33l-.25-.75c-1.2-8.46-7.78-10.17-15.4-12.15l-.78-.2c-5.72-1.73-11.07-4.32-16.06-6.83-7.6-3.88-13.32-10.14-18.86-16.19-3.49-3.81-7.09-7.76-11.1-11.02-.87-.86-1.67-1.66-2.47-2.44-6.99-6.91-14.22-14.05-16.06-24.4-3.47-5.93-8.19-11.22-12.75-16.33-4.53-5.08-9.22-10.33-12.8-16.3-3.49-6.13-6.62-12.93-9.84-21.35-1.16.05-2.27.22-3.07.49-3.84,1.57-6.63,3.43-8.74,5.84Z"/>
  <polygon class="uuid-3d79ac98-61aa-41f6-b337-299836f311de" points="1063.56 865.26 1063.56 865.26 1063.56 865.27 1063.56 865.26"/>
  <path class="uuid-3d79ac98-61aa-41f6-b337-299836f311de" d="m1246.51,997.7c-1.24,2.3-2.03,4.99-2.8,7.6-1.07,3.64-2.17,7.41-4.58,10.45-5.62,6.34-9.79,8.8-13.17,7.88-3.17-.89-5.34-4.77-6.65-11.87-.16-.29-.38-.83-.59-1.37-.57-1.44-1.11-2.8-1.99-3.81-6.23-5.04-16.74-6.65-23.3-.42l-.7.7c-1.6,1.59-3.41,3.38-3.6,5.38.28.92.71,1.75,1.17,2.62.61,1.16,1.23,2.35,1.49,3.8.4,6.46-5.28,12.2-10.72,15.45-1.27.6-2.56,1.07-3.8,1.52-3.85,1.4-7.5,2.73-8.83,6.39-.8,2.69.04,5.26.93,7.99.74,2.28,1.51,4.63,1.35,7.22.2,6.07-1.09,12.18-2.33,18.1l-.52,2.49c-.26.71-.33,1.45-.4,2.23,0,.02,0,.04,0,.07,3.64.38,7.17.47,10.4-1.13,2.18-1,3.19-3.3,4.16-5.51l.11-.25c1.81-6.15,6.51-7.7,11.73-7.7,2.86,0,5.86.47,8.63.89,1.55.24,3.04.47,4.4.6,1.1.17,2.17.32,3.25.47,7.52,1.05,16.04,2.23,20.38,9.62,1.96,2.95,3.87,5.48,7.05,6.06,8.34,1.63,17.5,2.36,22.33-4.43,2.56-3.21,5.42-6.79,9.39-9.08,2.53-1.5,5.33-1.38,8.04-1.25,1.31.06,2.54.12,3.74,0,2.73-.1,5.06-1.79,7.32-3.42.88-.55,1.56-1.34,2.28-2.17.57-.66,1.15-1.33,1.79-1.89-.59-2.01-.81-4.72-.68-8.42-1.34-13.1,3.44-20.21,15.05-22.22,3.74-3.06,5.9-8.66,5.1-13.21-.35-.5-.75-.98-1.14-1.46-1.51-1.84-3.21-3.92-2.47-7.02.07-1.24.44-2.5.8-3.73.37-1.25.72-2.43.71-3.62-5.16-3.26-4.23-9.18-2.81-13.72-.28-.14-.56-.29-.83-.46-1.4-1-2.71-2.05-4.03-3.1-2.86-2.28-5.82-4.63-9.17-6.12-4.28-.97-9.03-1.11-13.63-1.24-7.81-.23-15.89-.46-22.44-4.68-1.66,1.85-2.73,3.45-3.45,5.12-1.89,3.29-2.64,6.65-3.44,10.2-.78,3.49-1.59,7.11-3.53,10.46Z"/>
</svg>